PathFileType	4	(X/Y/Z)	C:\Users\WrightLab\Desktop\Jo\P3_24.trc
DataRate	CameraRate	NumFrames	NumMarkers	Units	OrigDataRate	OrigDataStartFrame	OrigNumFrames
100.00	100.00	       9	19	mm	100.00	381	       609
Frame#	Time	Headset_Front			Headset_Back			Headset_Left			Headset_Right			Left_Shoulder			Right_Shoulder			Sternum			C7			Left Elbow			Right Elbow			Left Wrist			Right Wrist			Left ASIS			Right ASIS			S2			Left Knee			Right Knee			Left Ankle			Right Ankle			
		X1	Y1	Z1	X2	Y2	Z2	X3	Y3	Z3	X4	Y4	Z4	X5	Y5	Z5	X6	Y6	Z6	X7	Y7	Z7	X8	Y8	Z8	X9	Y9	Z9	X10	Y10	Z10	X11	Y11	Z11	X12	Y12	Z12	X13	Y13	Z13	X14	Y14	Z14	X15	Y15	Z15	X16	Y16	Z16	X17	Y17	Z17	X18	Y18	Z18	X19	Y19	Z19	

381	3.800	-626.83423	1434.92383	-801.95557				-776.51337	1526.90430	-686.22351				-885.60419	1309.09204	-578.63458	-525.61053	1308.29590	-535.27228	-697.20679	1189.57947	-683.71265	-704.19580	1363.65955	-508.63321	-953.72882	974.65735	-577.55231	-455.78961	958.50580	-522.74280	-931.35529	802.32239	-690.20825	-474.01633	784.94446	-670.41620	-800.27570	830.29547	-663.12347				-720.71448	912.37122	-435.91653	-814.02185	431.15170	-736.17975	-602.24939	413.24121	-495.24817				-649.80139	98.10059	-378.98810	
382	3.810	-627.39191	1433.92651	-810.52240	-554.40271	1480.61877	-679.92065	-777.22241	1525.43164	-694.40613				-885.58716	1306.49219	-587.92761	-526.53888	1306.23792	-542.30127	-697.18719	1187.68213	-693.46222	-705.21454	1361.39709	-517.45496	-953.86847	971.64764	-586.37299	-456.07297	956.02710	-532.12469	-934.20715	799.86578	-699.41821	-473.59146	783.29498	-680.00049	-799.85651	827.84344	-673.31165				-722.20667	909.62427	-444.98810	-811.82410	428.70230	-744.16583	-602.41040	412.22241	-499.34949				-649.56091	98.09773	-380.45480	
383	3.820	-627.86804	1432.86584	-818.70526	-554.72650	1479.51062	-688.58984	-777.85693	1523.98291	-702.78033				-886.32281	1304.06079	-597.84888	-527.65912	1303.66211	-550.10522	-697.26801	1185.78577	-703.08466	-706.40375	1359.95764	-526.32263	-956.26978	970.16351	-595.61835	-456.16656	954.23871	-541.37622	-936.96503	797.36737	-708.42444	-473.31653	781.20697	-688.64032	-799.52588	825.51392	-683.51190	-548.68933	835.46136	-641.38818	-722.68805	908.09698	-454.85544	-809.00507	427.40961	-753.37628	-602.32037	410.73462	-505.04764				-648.98389	98.95219	-381.95621	
384	3.830	-628.30933	1432.45679	-827.62976	-555.57178	1478.31641	-696.27905	-779.38037	1521.99316	-710.49054				-886.88580	1301.75684	-607.68683	-527.86890	1302.31836	-559.68250	-697.36761	1183.67542	-711.96411	-707.45978	1357.93958	-537.13849	-957.78687	968.18182	-605.33624	-455.18881	952.27032	-549.95898	-939.68695	794.72675	-717.10260	-473.21146	778.40192	-696.70007	-799.46594	822.72974	-693.22516	-548.26703	833.74292	-652.02820	-722.96521	906.29138	-465.18536	-806.74799	425.26862	-762.47644	-602.26306	409.89465	-509.77518				-648.71802	99.03216	-382.75162	
385	3.840	-628.74158	1432.10376	-836.64551				-779.07013	1521.36060	-719.95502				-887.81970	1299.56238	-617.55975	-528.34619	1300.53027	-568.84607	-697.51135	1181.97424	-722.38745	-709.01379	1356.09741	-546.99469	-958.55530	965.63104	-614.62537	-454.74713	951.10767	-559.24988	-942.37067	791.88452	-725.49756	-473.10220	777.27118	-705.81110	-799.19000	820.57153	-703.35547	-548.12970	832.01886	-660.79620	-723.45313	905.14801	-474.52182	-804.13995	423.72620	-772.69073	-601.65167	408.81137	-516.38885				-648.63452	99.17923	-382.96906	
386	3.850	-629.15460	1431.67200	-845.52423				-779.72351	1519.86438	-727.99780				-887.95300	1297.21509	-626.87366	-529.35840	1298.81921	-578.17804	-697.66125	1180.04309	-731.09406	-710.30109	1354.29675	-556.08783	-960.25568	964.18884	-624.61230	-455.04575	948.83215	-569.23535	-944.80945	789.41193	-734.34839	-472.31711	774.94312	-713.94135	-798.89191	818.43256	-712.91089				-723.53644	902.61163	-482.55447	-801.54321	421.88498	-783.16901	-601.45129	407.86530	-522.31274				-648.69098	100.26714	-384.45093	
387	3.860	-629.41174	1431.45032	-854.23718				-781.34528	1517.97290	-735.74884				-889.07043	1295.67383	-637.58875	-530.11548	1297.26575	-587.21619	-697.81628	1178.86194	-742.32959	-709.56061	1352.12781	-565.53894	-961.08966	961.97083	-633.99805	-455.74817	947.72015	-578.15643	-947.26288	786.99750	-743.16803	-472.65140	773.18445	-722.49194	-798.54547	816.89838	-723.80603				-723.78601	900.79376	-492.24802	-798.71075	420.21024	-794.27277	-601.67914	406.43658	-529.31165				-648.43842	101.82337	-386.58890	
388	3.870	-629.54761	1431.35632	-863.47266				-780.70905	1517.41541	-745.27582				-889.53064	1293.86206	-647.40778	-531.26276	1295.83093	-596.07831	-698.06567	1177.02954	-750.83368	-710.74371	1350.29492	-575.31030	-961.51868	960.69391	-643.90540	-455.43713	947.26239	-586.62299	-949.56720	784.72235	-752.09033	-471.59702	770.99646	-730.01636	-798.35345	815.03931	-733.48694	-547.16064	825.20520	-689.65759	-723.56903	899.68311	-504.24530	-796.26489	417.51843	-803.86127	-601.51031	404.95328	-536.13147				-648.03857	102.95915	-388.02789	
389	3.880	-629.79791	1431.22693	-872.61139				-781.10461	1516.36450	-753.50293				-889.40680	1292.61487	-657.63196	-531.28253	1295.33521	-605.39270	-698.37396	1176.05835	-762.05969	-712.21820	1348.65710	-584.98505	-963.05042	959.25787	-654.11359	-455.50204	946.22437	-594.80945	-951.69318	782.45203	-760.27301	-471.92450	770.57220	-738.90735	-798.25244	813.73993	-744.63208				-723.13458	897.97430	-516.09808	-793.58118	416.52975	-815.10217	-600.70105	404.29633	-542.83600				-647.86536	103.00082	-388.63058	
